<svg xmlns="http://www.w3.org/2000/svg" xmlns:xlink="http://www.w3.org/1999/xlink" aria-hidden="true" role="img" class="iconify iconify--logos" width="35.93" height="32" preserveAspectRatio="xMidYMid meet" viewBox="0 0 256 228"><path fill="#00D8FF" d="M210.483 73.824a171.49 171.49 0 0 0-8.24-2.597c.465-1.9.893-3.777 1.273-5.621c6.238-30.281 2.16-54.676-11.769-62.708c-13.355-7.7-35.196.329-57.254 19.526a171.23 171.23 0 0 0-6.375 5.848a155.866 155.866 0 0 0-4.241-3.917C100.759 3.829 77.587-4.822 63.673 3.233C50.33 10.957 46.379 33.89 51.995 62.588a170.974 170.974 0 0 0 1.892 8.48c-3.28.932-6.445 1.924-9.474 2.98C17.309 83.498 0 98.307 0 113.668c0 15.865 18.582 31.778 46.812 41.427a145.52 145.52 0 0 0 6.921 2.165a167.467 167.467 0 0 0-2.01 9.138c-5.354 28.2-1.173 50.591 12.134 58.266c13.744 7.926 36.812-.22 59.273-19.855a145.567 145.567 0 0 0 5.342-4.923a168.064 168.064 0 0 0 6.92 6.314c21.758 18.722 43.246 26.282 56.54 18.586c13.731-7.949 18.194-32.003 12.4-61.268a145.016 145.016 0 0 0-1.535-6.842c1.62-.48 3.21-.985 4.77-1.51c29.42-9.871 48.433-26.04 48.433-41.498c0-14.753-17.46-30.034-45.09-39.854Zm-6.73 17.742c19.51 6.64 29.887 16.89 29.887 22.102c0 5.695-11.386 16.853-32.863 23.858a130.16 130.16 0 0 1-4.12 1.303c-3.28-10.34-7.616-21.253-13.012-32.457c5.378-11.062 9.67-21.852 12.927-32.097a155.48 155.48 0 0 1 7.18 17.29Zm-19.637 88.648c-6.023 22.473-18.084 36.55-24.116 36.55c-6.545 0-18.69-12.953-24.82-34.667a130.16 130.16 0 0 1-1.15-4.476c10.22-2.455 20.862-5.813 31.681-10.023c10.864 4.257 21.546 7.631 31.787 10.1a130.125 130.125 0 0 1-1.138 4.556l-12.244-2.04Zm-68.82-11.428c-3.16-5.592-6.109-11.16-8.82-16.66c2.654-.568 5.361-1.102 8.118-1.598c1.592 6.091 3.548 12.289 5.865 18.53a156.86 156.86 0 0 0-5.164-.272Zm-36.53-67.782c-7.62 3.907-14.024 8.103-18.98 12.366c-4.575 3.937-6.898 7.302-6.898 9.228c0 4.986 10.553 15.555 30.91 22.227c1.93.63 3.94 1.224 6.02 1.782c2.892-9.91 6.823-20.335 11.741-31.022a263.48 263.48 0 0 1-11.645-31.218a167.063 167.063 0 0 0-11.148 16.637Zm15.138 39.396c4.218-8.713 9.027-17.497 14.358-26.201a267.433 267.433 0 0 1 14.67 26.296c-9.816 1.755-19.283 4.098-28.228 7.04a201.25 201.25 0 0 1-.8-7.135Zm78.5 49.96c-7.05-2.055-14.371-4.517-21.872-7.385c7.498-2.844 14.821-5.297 21.871-7.353c1.624 5.097 3.02 10.054 4.148 14.853l-4.147-.115Zm5.652-30.67c5.068-11.198 9.08-22.203 12.009-32.783c-2.946-10.604-6.988-21.607-12.084-32.77c10.86-1.703 21.28-2.578 31.156-2.578c9.898 0 20.33.869 31.2 2.556c-5.091 11.167-9.126 22.172-12.058 32.77c2.94 10.571 6.987 21.578 12.088 32.783c-10.865 1.703-21.286 2.578-31.195 2.578c-9.903 0-20.334-.875-31.195-2.556h.079Zm76.58 23.334c-.994 3.735-2.186 7.416-3.559 11.02c-5.64-1.04-11.536-2.344-17.628-3.905c1.636-5.1 3.049-10.12 4.232-15.036a266.11 266.11 0 0 0 19.26 7.264c-.729.22-1.563.448-2.305.657Zm-58.53-61.85c2.642.56 5.334 1.094 8.079 1.591c-1.58 6.043-3.51 12.196-5.798 18.393a156.804 156.804 0 0 0 5.201-.27c-3.197-5.651-6.182-11.275-8.865-16.831l1.383-2.883ZM128 90.808c12.235 0 22.149 9.914 22.149 22.149c0 12.234-9.914 22.149-22.149 22.149c-12.234 0-22.149-9.915-22.149-22.15c0-12.234 9.915-22.148 22.149-22.148Zm0-66.653c6.508 0 18.79 13.102 24.87 35.14c.438 1.586.823 3.148 1.165 4.686c-10.154 2.455-20.73 5.772-31.486 9.934c-10.716-4.141-21.255-7.444-31.379-9.899a122.772 122.772 0 0 1 1.189-4.721C98.72 37.257 110.982 24.155 128 24.155ZM63.238 32.483c6.056 0 17.637 11.837 23.654 33.166c.358 1.273.697 2.563 1.013 3.867c-6.233 1.843-12.355 3.974-18.312 6.391c-5.968-2.428-12.101-4.564-18.339-6.412a130.053 130.053 0 0 1 .997-3.866c6.018-21.33 17.562-33.146 23.65-33.146h-12.663Zm-13.362 81.185c-20.31-6.673-30.864-17.13-30.864-22.143c0-4.892 9.622-14.815 29.041-21.471c1.954-.67 3.982-1.305 6.069-1.904c2.917 9.992 6.907 20.486 11.896 31.225a261.073 261.073 0 0 1-11.74 31.022a145.427 145.427 0 0 1-4.402-16.73Zm7.52 85.69c-6.056 0-17.567-11.718-23.583-32.802a130.108 130.108 0 0 1-1.196-4.802c6.257-1.86 12.669-4.02 19.178-6.474c6.55 2.478 12.999 4.646 19.285 6.507c-.321 1.303-.679 2.62-1.068 3.95c-6.014 20.721-17.553 33.62-23.618 33.62h11.002Zm77.244 23.476c-6.509 0-18.79-13.102-24.87-35.14a142.21 142.21 0 0 1-1.166-4.686c10.156-2.455 20.731-5.772 31.486-9.934c10.716 4.141 21.255 7.444 31.38 9.899a122.772 122.772 0 0 1-1.189 4.721c-6.01 22.103-18.272 35.14-35.641 35.14Zm77.26-55.963c-6.056 0-17.636-11.837-23.654-33.166a130.154 130.154 0 0 1-1.012-3.868c6.233-1.843 12.354-3.974 18.311-6.391c5.968 2.428 12.1 4.564 18.338 6.413c-.309 1.272-.64 2.56-.996 3.867c-6.019 21.33-17.563 33.145-23.65 33.145h12.663Z"/></svg>
